<svg xmlns="http://www.w3.org/2000/svg" viewBox="0 0 349.13 253.37">
  <g id="Layer_2" data-name="Layer 2">
    <g id="Layer_1-2" data-name="Layer 1">
      <g>
        <path d="M78.91,233.92c-12.4-5-33.14-30.75-49.07-48.3-8.23,10.72-15.85,10.69-21.73,5.7C2.63,186.52,0,178.93,0,164.05V142.53c0-5.94,1-8.27,4.58-7.92,3.25.13,19.41,9,37.67,21.68,1.89-5.25,3.69-11.12,5.49-17.2a37.11,37.11,0,0,1-17.14,2.29C12.56,138.24,0,125.69,0,106.85,0,87.42,15.54,56.42,35.83,41.71c4-2.55,8.41-3.86,12.48-2.43-.08.29-.16.58-.23.87a14.56,14.56,0,0,0-8.72,2.35C26,51.06,17.93,68.09,17.91,83.32,18,102.1,29.41,112.52,50,111.41a54.79,54.79,0,0,0,5.58-.89C66.29,73.15,83.86,17.67,99.84,12.16c6.83-2.09,10.65,4.19,10.65,18.58,0,43.51-32.36,96.55-60.49,107.37-2,7.12-4.06,13.58-6.08,19.24,14,9.35,28.9,19.52,37.14,21,14.91,2.9,22.35-11.18,22.32-33.91,0-12-2.09-21.32-7.3-31.76l.24-.47c6.79,11.39,14.78,32.65,14.78,59.88C111.13,212.31,97.7,242,78.91,233.92ZM1.48,168.76c0,5.88,3.34,10.72,9.28,15,6.15,4.35,11.75,4,16.92-.64C18,172.46,10.22,165,6.69,163.25,3.76,161.85,1.49,163.19,1.48,168.76Zm56.28-58.63C80.24,104.77,104,78.93,104,54.59c0-8-2.21-12.32-7.06-11.18C85.85,45.74,69.44,71,57.76,110.13Z"/>
        <path d="M166.55,167.67c2.9,3.35,5.93,6.69,9,9.76V84.54c0-34.53,3.28-61.19,8.07-84.54C196.65,11.1,231,45.49,230.89,64.74c0,13.76-18.49,38.59-26.8,49.15q9.53.12,19,.31c9.93.28,13.1,14.08,13.11,26.55,0,47.17-18.61,110.14-37.63,112.58-9.91,1.14-27.74-22.26-44.85-42.18-7.93,20.27-19.35,38-29.52,35.84-7.82-1.61-11.25-13.13-11.26-29.2v-82.1c0-12.26,1.72-18.55,7.41-18.68,7-.35,24.26,25.1,44.45,48.59,1.76-9.69,3.15-21.19,3.15-29.89,0-38.1-12-62.71-28.67-61.65-14.27,1-23.63,19.54-26.09,35.62h-.25V25.43C118.59,14.61,128,5.16,137.4,3.8,159.94.52,173,40.43,173,107.57A312.85,312.85,0,0,1,166.55,167.67Zm-37.89,54.42c10.84,1.53,18.89-4.17,23.29-13.07-10.82-12.58-21.07-22.61-28.88-23.35-4.84-.46-8.29,3.49-8.29,15.55C114.78,213.48,120.32,220.87,128.66,222.09ZM177.4,113.71q12,0,23.93.15c2.76-3.27,5.77-11.26,5.77-17,0-15.53-16.69-29.35-29.32-31.2-.25,5.89-.38,12.28-.38,18.94Zm0,43.24v22.26C190,191.74,203,200.27,214.85,199.12c10.24-1,15.54-8.12,15.54-22.66,0-16-5.18-20.62-14.16-20.3C203.37,156.66,190.39,156.92,177.4,157Z"/>
        <path d="M237.41,140c0-15.14,2.22-19.43,7.36-19.34,7,.07,28.46,24.29,49.35,37.79a104.58,104.58,0,0,0,2.73-23.08c0-28.9-11.34-54.26-31.16-58.53-14-2.58-24,9.22-27.42,32.94H238V25.82c7.62-8,17.38-12,26.7-8.45,25,11,36.82,51.8,36.88,86.39,0,18-2.13,39.46-5.89,55.77a82.31,82.31,0,0,0,8.14,4.75V110.2c0-26.68.8-47.69,5.9-71.61l.11.07c23.75,47.5,39.22,73.56,39.26,105.74,0,19.63-10.75,48.41-25.11,60.1-8.38,6.44-24.84,4.44-41.1-4.65-8.59,18.05-22.77,39-34.73,42.62-6.71,2-10.78-3-10.78-22.26Zm24,77.2c5.78-1.65,14.2-8.7,19.8-18.23-14-7.6-27.38-18.61-33.23-18.28-5,0-8.81,5.65-8.68,16.91C239.37,213.48,249.73,220.71,261.37,217.19ZM305.54,96.82V165c12.65,6.34,24.11,6.83,31.9,2.87a19,19,0,0,0,9.81-16.79C347.57,141.48,319.5,114.06,305.54,96.82Z"/>
      </g>
    </g>
  </g>
</svg>
